<?xml version="1.0" encoding="utf-8"?>
<!-- Generator: Adobe Illustrator 23.0.2, SVG Export Plug-In . SVG Version: 6.00 Build 0)  -->
<svg version="1.1" id="Layer_4" xmlns="http://www.w3.org/2000/svg" xmlns:xlink="http://www.w3.org/1999/xlink" x="0px" y="0px"
	 viewBox="0 0 1400 1400" style="enable-background:new 0 0 1400 1400;" xml:space="preserve">
<style type="text/css">
	.st0{fill:#FFFFFF;}
	.st1{fill:#F96E6B;}
	.st2{fill:#FF8983;}
	.st3{fill:#FFBDBB;}
	.st4{fill:#7F3F98;}
	.st5{fill:#1D99B3;}
	.st6{fill:#033D60;}
	.st7{fill:#EF3D53;}
	.st8{fill:#E2A90A;}
	.st9{fill:#F9E743;}
	.st10{fill:#0F5182;}
	.st11{fill:#6AD7E5;}
	.st12{fill:#0A6299;}
	.st13{fill:#1176A8;}
	.st14{fill:#D62946;}
	.st15{fill:#26BAC6;}
	.st16{fill:#5F217C;}
	.st17{fill:#9748BC;}
</style>
<g>
	<rect x="0" class="st0" width="1400" height="1400"/>
	<rect x="0" class="st1" width="1400" height="1400"/>
	<g>
		<path class="st2" d="M700,1217.14c-69.81,0-137.54-13.67-201.3-40.64c-61.58-26.05-116.89-63.33-164.38-110.83
			c-47.49-47.49-84.78-102.8-110.83-164.38c-26.97-63.76-40.64-131.48-40.64-201.3c0-69.81,13.67-137.54,40.64-201.3
			c26.05-61.58,63.33-116.89,110.83-164.38c47.49-47.49,102.8-84.78,164.38-110.83c63.76-26.97,131.48-40.64,201.3-40.64
			c69.81,0,137.54,13.67,201.3,40.64c61.58,26.05,116.89,63.33,164.38,110.83c47.49,47.49,84.78,102.8,110.83,164.38
			c26.97,63.76,40.64,131.48,40.64,201.3c0,69.81-13.67,137.54-40.64,201.3c-26.05,61.58-63.33,116.89-110.83,164.38
			c-47.49,47.49-102.8,84.78-164.38,110.83C837.54,1203.47,769.81,1217.14,700,1217.14z M700,187.86
			c-282.4,0-512.14,229.75-512.14,512.14c0,282.4,229.75,512.14,512.14,512.14c282.4,0,512.14-229.75,512.14-512.14
			C1212.14,417.6,982.4,187.86,700,187.86z"/>
	</g>
	<g>
		<path class="st2" d="M700,1343.1c-86.82,0-171.04-17-250.32-50.54c-76.58-32.39-145.35-78.76-204.42-137.82
			c-59.06-59.06-105.43-127.84-137.82-204.42C73.91,871.04,56.9,786.82,56.9,700s17-171.04,50.54-250.32
			c32.39-76.58,78.76-145.35,137.82-204.42c59.06-59.06,127.84-105.43,204.42-137.82C528.96,73.91,613.18,56.9,700,56.9
			s171.04,17,250.32,50.54c76.58,32.39,145.36,78.76,204.42,137.82c59.06,59.06,105.43,127.84,137.82,204.42
			c33.54,79.29,50.54,163.51,50.54,250.32c0,86.82-17,171.04-50.54,250.32c-32.39,76.58-78.76,145.36-137.82,204.42
			c-59.06,59.06-127.84,105.43-204.42,137.82C871.04,1326.09,786.82,1343.1,700,1343.1z M700,61.9C348.15,61.9,61.9,348.15,61.9,700
			s286.25,638.1,638.1,638.1s638.1-286.25,638.1-638.1S1051.85,61.9,700,61.9z"/>
	</g>
	<circle class="st2" cx="700" cy="700" r="454.97"/>
	<g>
		<polygon class="st3" points="1228.75,638.09 1202.14,611.48 1175.52,638.09 1192.08,638.09 1192.08,686.12 1212.19,686.12 
			1212.19,638.09 		"/>
		<polygon class="st3" points="571.25,278.9 544.64,252.29 518.02,278.9 534.58,278.9 534.58,326.94 554.69,326.94 554.69,278.9 		
			"/>
		<polygon class="st3" points="754.44,1073.56 713.35,1032.48 672.27,1073.56 697.83,1073.56 697.83,1147.71 728.87,1147.71 
			728.87,1073.56 		"/>
		<polygon class="st3" points="709.45,323.22 668.37,282.14 627.28,323.22 652.85,323.22 652.85,397.37 683.89,397.37 
			683.89,323.22 		"/>
		<polygon class="st3" points="224.48,781.14 197.86,754.53 171.25,781.14 187.81,781.14 187.81,829.18 207.92,829.18 
			207.92,781.14 		"/>
		<polygon class="st3" points="977.74,824.14 951.13,797.53 924.51,824.14 941.08,824.14 941.08,872.18 961.18,872.18 
			961.18,824.14 		"/>
		<g>
			<rect x="1050.29" y="1014.79" class="st3" width="45.83" height="15.6"/>
			<rect x="1050.29" y="1062.79" class="st3" width="45.83" height="7.25"/>
			<rect x="1050.29" y="1038.79" class="st3" width="45.83" height="11.42"/>
			<rect x="1050.29" y="1086.79" class="st3" width="45.83" height="3.07"/>
			<polygon class="st3" points="1096.12,971.28 1133.87,971.28 1073.21,910.62 1012.55,971.28 1050.29,971.28 1050.29,1010.56 
				1096.12,1010.56 			"/>
		</g>
		<g>
			<rect x="274.84" y="598.3" class="st3" width="45.83" height="15.6"/>
			<rect x="274.84" y="646.3" class="st3" width="45.83" height="7.25"/>
			<rect x="274.84" y="622.3" class="st3" width="45.83" height="11.42"/>
			<rect x="274.84" y="670.3" class="st3" width="45.83" height="3.07"/>
			<polygon class="st3" points="320.67,554.8 358.42,554.8 297.76,494.13 237.09,554.8 274.84,554.8 274.84,594.08 320.67,594.08 
							"/>
		</g>
		<g>
			<g>
				<rect x="1073.21" y="338.9" class="st3" width="8" height="6"/>
			</g>
			<g>
				<path class="st3" d="M1081.21,810.35h-8v-12.25h8V810.35z M1081.21,785.86h-8v-12.25h8V785.86z M1081.21,761.36h-8v-12.25h8
					V761.36z M1081.21,736.86h-8v-12.25h8V736.86z M1081.21,712.36h-8v-12.25h8V712.36z M1081.21,687.87h-8v-12.25h8V687.87z
					 M1081.21,663.37h-8v-12.25h8V663.37z M1081.21,638.87h-8v-12.25h8V638.87z M1081.21,614.37h-8v-12.25h8V614.37z
					 M1081.21,589.88h-8v-12.25h8V589.88z M1081.21,565.38h-8v-12.25h8V565.38z M1081.21,540.88h-8v-12.25h8V540.88z
					 M1081.21,516.38h-8v-12.25h8V516.38z M1081.21,491.89h-8v-12.25h8V491.89z M1081.21,467.39h-8v-12.25h8V467.39z
					 M1081.21,442.89h-8v-12.25h8V442.89z M1081.21,418.39h-8v-12.25h8V418.39z M1081.21,393.9h-8v-12.25h8V393.9z M1081.21,369.4
					h-8v-12.25h8V369.4z"/>
			</g>
			<g>
				<rect x="1073.21" y="822.6" class="st3" width="8" height="6"/>
			</g>
		</g>
		<g>
			<g>
				<rect x="415.05" y="351.15" class="st3" width="8" height="6"/>
			</g>
			<g>
				<path class="st3" d="M423.05,822.6h-8v-12.25h8V822.6z M423.05,798.11h-8v-12.25h8V798.11z M423.05,773.61h-8v-12.25h8V773.61z
					 M423.05,749.11h-8v-12.25h8V749.11z M423.05,724.61h-8v-12.25h8V724.61z M423.05,700.12h-8v-12.25h8V700.12z M423.05,675.62h-8
					v-12.25h8V675.62z M423.05,651.12h-8v-12.25h8V651.12z M423.05,626.62h-8v-12.25h8V626.62z M423.05,602.13h-8v-12.25h8V602.13z
					 M423.05,577.63h-8v-12.25h8V577.63z M423.05,553.13h-8v-12.25h8V553.13z M423.05,528.63h-8v-12.25h8V528.63z M423.05,504.14h-8
					v-12.25h8V504.14z M423.05,479.64h-8v-12.25h8V479.64z M423.05,455.14h-8v-12.25h8V455.14z M423.05,430.64h-8v-12.25h8V430.64z
					 M423.05,406.15h-8V393.9h8V406.15z M423.05,381.65h-8V369.4h8V381.65z"/>
			</g>
			<g>
				<rect x="415.05" y="834.85" class="st3" width="8" height="6"/>
			</g>
		</g>
	</g>
	<g>
		<g>
			<g>
				<path class="st4" d="M579.23,586.31c1.3,3,0.71,6.48-1.52,8.87c-3.59,3.86-5.77,8.74-6.25,13.95c-0.07,0.74-0.11,1.49-0.11,2.25
					c0,13.14,10.69,23.83,23.83,23.83c13.14,0,23.83-10.69,23.83-23.83c0-0.75-0.04-1.51-0.11-2.25
					c-0.49-5.21-2.67-10.09-6.25-13.95c-0.28-0.3-0.53-0.62-0.76-0.95c-1.13-1.65-1.62-3.65-1.39-5.61c0.09-0.79,0.3-1.56,0.63-2.31
					c0.9-2.06,2.57-3.62,4.6-4.39c0.92-0.35,1.91-0.54,2.93-0.54h73.12v-58.7c-2.69,0.97-5.5,1.64-8.36,2.01
					c-1.72,0.22-3.46,0.34-5.22,0.34c-22.2,0-40.26-18.06-40.26-40.26c0-22.19,18.06-40.25,40.26-40.25c4.68,0,9.27,0.81,13.58,2.35
					v-59.42c-103.98,4.27-187.12,89.22-188.5,193.92h68.42C574.97,581.38,577.93,583.31,579.23,586.31z"/>
				<path class="st5" d="M820.77,592.87c-1.3-3-0.71-6.48,1.52-8.87c4.1-4.41,6.36-10.16,6.36-16.2c0-13.14-10.69-23.83-23.83-23.83
					c-13.14,0-23.83,10.69-23.83,23.83c0,6.04,2.26,11.79,6.36,16.2c2.23,2.39,2.82,5.88,1.52,8.87c-1.3,3-4.26,4.93-7.53,4.93
					h-73.12v58.7c4.31-1.54,8.9-2.35,13.58-2.35c22.19,0,40.25,18.06,40.25,40.25c0,22.2-18.06,40.26-40.25,40.26
					c-4.68,0-9.27-0.81-13.58-2.35v65.48h121.86v-66.16c37.66-33.21,62.52-80.6,66.2-133.83H828.3
					C825.03,597.8,822.07,595.86,820.77,592.87z"/>
			</g>
			<g>
				<rect x="569.93" y="812.68" class="st6" width="260.14" height="28.54"/>
				<rect x="569.93" y="852.84" class="st6" width="260.14" height="28.54"/>
				<path class="st6" d="M830.07,893.01v28.54h-50.5c0,43.95-35.63,79.58-79.57,79.58c-43.94,0-79.57-35.63-79.57-79.58h-50.5
					v-28.54H830.07z"/>
			</g>
			<g>
				<path class="st6" d="M509.9,701.66c-0.03-0.13-0.07-0.26-0.1-0.39c-0.61-2.14-1.23-4.27-1.88-6.39
					c-1.21-3.98-2.5-7.94-3.89-11.86c-2.86-8.03-6.19-15.94-10.23-23.45c-22.18-41.15-26.21-34.33-44.17-2.7
					c-2.49,4.39-5.01,8.88-6.56,13.71c-1.61,4.99-1.78,10.23-1.36,15.43c0.8,9.69,2.5,19.52,6.39,28.48
					c3.62,8.34,9.49,15.34,17.1,20.31c16.09,10.51,36.21,10.92,54.36,6.52c10.14-2.46,19.9-6.3,29.44-10.49
					c9.14-4.01,18.07-8.52,26.57-13.75c4.73-2.91,9.32-6.05,13.73-9.43c4.12-3.16,8.94-6.53,12.19-10.62
					c0.06-0.08,0.11-0.15,0.17-0.23c-4.43-10.31-11.12-19.4-17.63-28.35C562.2,685.04,536.76,696.42,509.9,701.66z"/>
				<path class="st7" d="M696.72,710.36c3-1.31,6.48-0.71,8.87,1.51c4.41,4.1,10.17,6.36,16.2,6.36c13.14,0,23.83-10.69,23.83-23.83
					c0-13.14-10.69-23.83-23.83-23.83c-6.03,0-11.79,2.26-16.2,6.36c-2.39,2.22-5.87,2.82-8.87,1.51c-2.99-1.31-4.93-4.26-4.93-7.53
					V597.8h-58.7c1.54,4.31,2.35,8.9,2.35,13.58c0,22.19-18.06,40.25-40.26,40.25c-22.19,0-40.25-18.06-40.25-40.25
					c0-4.69,0.81-9.27,2.35-13.58h-53.56c3.68,53.22,28.54,100.62,66.2,133.83v66.16h121.86v-79.9
					C691.79,714.62,693.72,711.66,696.72,710.36z"/>
				<path class="st7" d="M261.46,1081.36c-22.07,14.45-36.05,13.69-45.33,22.94c-9.28,9.25,14.49,42.47,32.24,71.73
					c17.75,29.26,14.78-22.79,8.37-45.25c21.6-16.5,37.9-21.48,37.9-21.48L261.46,1081.36z"/>
				<path class="st8" d="M449.08,852.51c9.59,73.35-3.28,115.56-18.05,149.65c-14.77,34.1-140.92,119.34-165.83,125.46
					c-17.68-22.16-18.94-41.08-18.94-41.08c50.66-73.14,113.44-116.29,113.44-116.29c-22.19-89.84-9.26-133.67,18.01-172.46
					C407.85,826.87,449.08,852.51,449.08,852.51z"/>
				<path class="st7" d="M472.3,1121.3c-7.58,25.27-18.76,33.69-19.91,46.74c-1.15,13.05,38.44,23.16,70.86,34.11
					s-3.37-26.95-22.74-40.01c5.9-26.53,15.16-40.85,15.16-40.85H472.3z"/>
				<path class="st9" d="M485.93,818.72c52.24,52.38,67.71,93.7,76.74,129.74s-39.22,180.46-55.27,200.46
					c-27.51-6.83-40.03-21.07-40.03-21.07c-4.3-88.87,19.27-161.31,19.27-161.31c-72.28-57.79-88.68-100.45-90.65-147.82
					C437.61,823.46,485.93,818.72,485.93,818.72z"/>
				<g>
					<path class="st10" d="M521.06,827.64c-1.64-38.06-6.65-76.83-15.74-115.37c-2.97-12.61-6.37-25.12-10.19-37.49
						c-9.68-31.33-25.93-64.57-60-66.69c-8.89-0.55-36.85,3.4-55.69,22.99c-6.53,6.79-11.72,14.86-14.91,23.74
						c-4.05,11.27-4.42,23.4-4.29,35.26c0.82,74.51-10.9,136.49-10.9,136.49c1.33,8.88,164.75,46.77,171.57,18.23
						C522.2,839.35,521.29,833.16,521.06,827.64z"/>
					<g>
						<path class="st11" d="M473.71,558.22c-3.29-9.45-11.59-16.75-21.1-19.87c-9.92-3.25-22.78-1.1-27.59,8.17
							c-3.81,7.34-1.37,16.18,0.17,24.31c7.66,40.34-14.74,40.87-6.47,65.69c3.69,11.06,14.17,19.75,25.8,20.53
							c1.47,0.1,3.02,0.06,4.31-0.64c2.57-1.4,3.17-4.79,3.26-7.71c0.3-9.81-1.89-19.53-2.13-29.33c-0.24-9.81,1.88-20.4,9.1-27.05
							c2.57-2.37,5.65-4.11,8.23-6.46C474.71,579.1,476.99,567.67,473.71,558.22z"/>
					</g>
					<path class="st11" d="M549.42,650.72c-0.56-1.28-1.8-2.25-3.2-2.27c0.83-1.42,1.57-3.13,0.72-4.67
						c-0.78-1.41-1.89-1.62-3.04-1.23c0.03-0.07,0.07-0.13,0.1-0.2c0.66-1.48,1.31-4.34-0.45-5.39c-0.93-0.55-1.95-0.49-2.93-0.1
						c0.49-1.13,0.78-2.31,0.71-3.47c-0.16-2.68-2.67-3.14-4.45-1.61c-5.15,4.44-8.54,11.85-14.14,15.95
						c-0.05-2.89-1.04-5.74-3.04-8.02c-1.47-1.68-3.38-2.95-5.48-3.69c-1.14-0.41-3-1.07-4.19-0.36c-1.31,0.79-0.67,3.3-0.46,4.55
						c0.45,2.64,2.28,4.51,3.32,6.9c2.2,5.06,1.37,11.07-1.97,15.42c-0.35,0.45,5.01,24.07,19.03,13.11
						c2.19-1.71,3.89-3.74,5.54-5.96c1.9-2.54,4.43-4.28,6.74-6.41c2.12-1.96,4.11-4.13,5.75-6.51
						C549.17,655.07,550.34,652.81,549.42,650.72z"/>
					<path class="st12" d="M529.49,679.13c-0.17-0.45-19.7-25.07-20.77-23.11c-11.85,21.77-50.38,57.74-68.44,61.34
						c-5.79-47.28-14.88-80.02-47.48-80.36c-47.02-0.49-5.16,129.93,36.31,134.32C485.34,777.27,529.67,679.58,529.49,679.13z"/>
					<path class="st7" d="M427.28,587.66c-0.72,0-1.02,0.9-0.13,0.9C427.88,588.56,428.17,587.66,427.28,587.66z"/>
					<path class="st6" d="M469.33,535.19c-1.01-0.39-2.09-0.57-3.17-0.56c-1.04-5.37-6.02-9.44-12-8.84
						c-3.55,0.36-6.58,2.35-8.74,5.14c-0.1,0.13-0.19,0.26-0.29,0.4c-3.14-1.56-7.17-2.43-9.64-0.22c-1.38,1.23-1.83,2.95-1.72,4.75
						c-4.3-0.76-8.71-0.55-11.57,3.36c-1.36,1.85-1.84,4.2-1.44,6.42c-3.87,0.9-7.24,3.61-7.07,8.05c0.1,2.58,1.53,5.35,3.62,7.17
						c-1.2,1.81-1.96,3.83-1.47,6.08c0.31,1.4,1.02,2.33,1.96,2.95c-0.81,2.32-0.7,5.13,0.52,6.96c0.43,0.65,1.03,1.12,1.72,1.45
						c-2.65,8.87,4.22,17.34,11.07,11.27c1.84-1.63,2.3-3.33,1.49-4.99c0.11-0.3,0.21-0.6,0.3-0.9c1.34-4.55,0.16-8.37-2.09-12.36
						c-1.03-1.83-2.88-5.78-0.52-7.48c2.06-1.49,3.88,0.59,4.61,2.36c0.58,1.4,0.6,2.94,1.08,4.37c0.96,2.88,4.45,2.86,5.88,0.27
						c1.26-2.28-0.35-5.07-1.25-7.19c-0.6-1.43-1.22-2.85-1.81-4.28c-0.19-0.46-0.47-0.96-0.53-1.46c-0.28-2.49,2.95-2.33,4.57-2.09
						c4.01,0.58,7.11,1.03,9.88-2.41c0.6-0.74,1.11-1.55,1.74-2.26c1.66-1.85,3.86-1.93,6.05-1.13c1.95,0.71,3.82,1.78,5.89,2.08
						c3.75,0.54,6.81-1.87,7.84-5.43C475.49,542.37,473.7,536.91,469.33,535.19z"/>
				</g>
			</g>
			<g>
				<g>
					<path class="st13" d="M1255.81,261.04c18.65-18.65,20.76-32.49,31.71-39.69c10.95-7.2,38.62,22.86,63.63,46.21
						s-25.33,9.81-46-1.05c-20.56,17.77-28.77,32.72-28.77,32.72L1255.81,261.04z"/>
					<path class="st14" d="M993.46,397.96c69.85,24.37,113.79,20.4,150.19,12.91s145.62-113.57,156.69-136.71
						c-18.08-21.83-36.34-26.94-36.34-26.94c-81.94,34.65-137.01,87.29-137.01,87.29c-83.41-40.08-128.96-36.37-172.51-17.6
						C976.78,352.36,993.46,397.96,993.46,397.96z"/>
				</g>
				<g>
					<path class="st5" d="M1197.98,241.77c12.07-23.46,9.85-37.28,18.08-47.48s43.75,9.98,74.7,24.59
						c30.95,14.61-21.12,17.08-44.13,13.04c-14.16,23.2-17.42,39.94-17.42,39.94L1197.98,241.77z"/>
					<path class="st7" d="M966.6,452.37c73.95,1.89,137.94-15.45,170.31-33.69c32.37-18.24,104-152.6,107.48-178.01
						c-23.88-15.27-42.83-14.56-42.83-14.56c-67.46,58.01-103.83,124.95-103.83,124.95c-91.67-12.71-133.91,4.73-169.65,35.89
						C960.14,413.9,966.6,452.37,966.6,452.37z"/>
				</g>
				<g>
					<g>
						<path class="st15" d="M866.8,408.99c-13.35,11.18-17.91,14-34.01,21.07c0.49,0.38,5.78,5.81,8.11,5.81
							c-12.37,13.64-66.01,34.61-90.78,33.59c-5.45,0.63-11.03-1.75-14.24-6.24c-1.52-2.12-2.18-4.65-4.21-6.4
							c-0.96-0.82-2.79-2.67-4.14-1.94c-1.22,0.65-1.61,2.59-1.85,3.78c-0.44,2.18-0.33,4.47,0.35,6.6c0.93,2.89,2.86,5.2,5.32,6.73
							c-6.4,2.69-14.49,1.8-20.95,3.93c-2.23,0.74-3.13,3.13-0.91,4.64c0.96,0.65,2.12,1.01,3.34,1.17
							c-0.85,0.64-1.42,1.48-1.42,2.57c-0.01,2.05,2.78,2.96,4.39,3.15c0.08,0.01,0.15,0.01,0.23,0.02
							c-0.92,0.79-1.32,1.85-0.5,3.24c0.88,1.52,2.73,1.76,4.37,1.78c-0.7,1.21-0.5,2.77,0.3,3.91c1.32,1.87,3.85,2.02,5.93,1.89
							c2.88-0.19,5.77-0.78,8.53-1.59c3.01-0.88,5.81-2.17,8.96-2.49c2.75-0.28,5.37-0.69,7.96-1.69c0.7-0.27,1.32-0.56,1.9-0.87
							c10.39,1.62,106.61,12.58,129.14-35.98C887.81,444.52,881.4,426.7,866.8,408.99z"/>
						<path class="st16" d="M788.93,355c-16.24,27.76,6.34,52.12,43.05,80.87c16.11-7.07,32-14.61,45.35-25.79
							C855.54,369.12,805.67,326.38,788.93,355z"/>
					</g>
					<path class="st9" d="M708.21,387.46v73.84c0,0.41-0.03,0.81-0.09,1.21c-0.41,2.77-2.22,5.18-4.84,6.32
						c-0.94,0.41-1.92,0.63-2.9,0.68c-0.07,0-0.14,0-0.21,0c-0.13,0-0.25,0.01-0.38,0c-1.96-0.05-3.88-0.8-5.38-2.19
						c-0.28-0.26-0.56-0.51-0.84-0.75c-4.29-3.63-9.7-5.62-15.36-5.62c-13.14,0-23.83,10.69-23.83,23.83
						c0,13.14,10.69,23.83,23.83,23.83c6.03,0,11.79-2.26,16.2-6.36c2.39-2.22,5.88-2.82,8.87-1.51c2.99,1.3,4.93,4.26,4.93,7.53
						v73.12h58.7c-1.54-4.31-2.35-8.9-2.35-13.58c0-22.2,18.06-40.26,40.25-40.26c22.2,0,40.26,18.06,40.26,40.26
						c0,4.69-0.81,9.27-2.35,13.58h54C895.33,476.68,812.19,391.73,708.21,387.46z"/>
					<path class="st4" d="M954.41,463.33c-36.92-9.38-73.85-22.21-109.72-38.98c-11.73-5.49-23.29-11.36-34.62-17.64
						c-28.69-15.88-57.91-38.57-53.03-72.36c1.27-8.82,10.85-35.38,33.88-49.82c7.98-5,16.94-8.44,26.28-9.75
						c11.86-1.66,23.81,0.46,35.39,3C925.37,293.81,988.44,295,988.44,295c8.42,3.11,12.13,170.83-17.21,171.68
						C965.64,466.84,959.77,464.69,954.41,463.33z"/>
					<g>
						<path class="st11" d="M715.48,267.24c-1.2-9.94,3.04-20.14,10.22-27.12c7.48-7.28,19.98-11,28.38-4.79
							c6.65,4.92,8.34,13.93,10.53,21.91c10.85,39.6,31.2,30.24,34.68,56.17c1.55,11.55-4.05,23.97-14.16,29.78
							c-1.28,0.73-2.68,1.38-4.16,1.32c-2.93-0.13-4.96-2.91-6.32-5.5c-4.58-8.68-6.89-18.37-10.98-27.29
							c-4.09-8.92-10.66-17.5-20.06-20.3c-3.34-1-6.88-1.21-10.23-2.18C723.76,286.44,716.68,277.17,715.48,267.24z"/>
					</g>
					<g>
						<path class="st11" d="M890.74,360.67c-13.35,11.18-17.91,14-34.01,21.07c0.49,0.38,5.78,5.81,8.11,5.81
							c-12.37,13.64-66.01,34.61-90.78,33.59c-5.45,0.63-11.03-1.75-14.24-6.24c-1.52-2.12-2.18-4.65-4.21-6.4
							c-0.96-0.82-2.79-2.67-4.14-1.94c-1.22,0.65-1.61,2.59-1.85,3.78c-0.44,2.18-0.33,4.47,0.35,6.6c0.93,2.89,2.86,5.2,5.32,6.73
							c-6.4,2.69-14.49,1.8-20.95,3.93c-2.23,0.74-3.13,3.13-0.91,4.64c0.96,0.65,2.12,1.01,3.34,1.17
							c-0.85,0.64-1.42,1.48-1.42,2.57c-0.01,2.05,2.78,2.96,4.39,3.15c0.08,0.01,0.15,0.01,0.23,0.02
							c-0.92,0.79-1.32,1.85-0.5,3.24c0.88,1.52,2.73,1.76,4.37,1.78c-0.7,1.21-0.5,2.77,0.3,3.91c1.32,1.87,3.85,2.02,5.93,1.89
							c2.88-0.19,5.77-0.78,8.53-1.59c3.01-0.88,5.81-2.17,8.96-2.49c2.75-0.28,5.37-0.69,7.96-1.69c0.7-0.27,1.32-0.56,1.9-0.87
							c10.39,1.62,106.61,12.58,129.14-35.98C911.75,396.2,905.34,378.38,890.74,360.67z"/>
						<path class="st17" d="M812.87,306.68c-16.24,27.76,6.34,52.12,43.05,80.87c16.11-7.07,32-14.61,45.35-25.79
							C879.48,320.81,829.61,278.06,812.87,306.68z"/>
					</g>
				</g>
			</g>
			<path class="st6" d="M736.31,257.13c-35.5-10.35-47.78-1.91-47.14-12.1c0.64-10.19,24.21-16.78,36.63-12.85
				c19.11-11.99,36.77-16.79,39.88,1.69c17.45,16.25,12.32,42.2,8.83,45.79c-3.49,3.59-18.64-4.53-17.11-13.13
				c1.52-8.6-1.5-10.83-5.96-9.71s1.59,11.47-2.87,12.1S740.43,258.33,736.31,257.13z"/>
		</g>
	</g>
</g>
</svg>
