<?xml version="1.0" encoding="utf-8"?>
<!-- Generator: Adobe Illustrator 21.0.0, SVG Export Plug-In . SVG Version: 6.00 Build 0)  -->
<svg version="1.1" id="Layer_1" xmlns="http://www.w3.org/2000/svg" xmlns:xlink="http://www.w3.org/1999/xlink" x="0px" y="0px"
	 width="2000px" height="2000px" viewBox="0 0 2000 2000" style="enable-background:new 0 0 2000 2000;" xml:space="preserve">
<style type="text/css">
	.st0{fill:#FEC9F5;}
	.st1{fill:#B50B78;}
	.st2{fill:#751880;}
	.st3{fill:url(#SVGID_1_);}
	.st4{fill:url(#SVGID_2_);}
	.st5{fill:#F6AAD1;}
	.st6{fill:url(#SVGID_3_);}
	.st7{fill:#F44599;}
	.st8{fill:url(#SVGID_4_);}
	.st9{fill:#FFFFFF;}
	.st10{fill:#F7EBF6;}
	.st11{fill:#E8C5E6;}
	.st12{fill:#B28CF3;}
	.st13{fill:#ED74B3;}
	.st14{fill:#945EF2;}
	.st15{fill:#153189;}
	.st16{fill:url(#SVGID_5_);}
	.st17{fill:url(#SVGID_6_);}
	.st18{fill:url(#SVGID_7_);}
	.st19{fill:url(#SVGID_8_);}
	.st20{fill:url(#SVGID_9_);}
	.st21{fill:url(#SVGID_10_);}
	.st22{fill:url(#SVGID_11_);}
	.st23{fill:url(#SVGID_12_);}
	.st24{fill:url(#SVGID_13_);}
	.st25{fill:url(#SVGID_14_);}
	.st26{fill:#80208E;}
	.st27{fill:#F9C5E2;}
	.st28{fill:#C9B1FC;}
	.st29{fill:#3D116A;}
	.st30{fill:url(#SVGID_15_);}
	.st31{fill:url(#SVGID_16_);}
	.st32{fill:url(#SVGID_17_);}
	.st33{fill:url(#SVGID_18_);}
</style>
<g>
	<rect class="st0" width="2000" height="2000"/>
	<g>
		<path class="st1" d="M1493.7,1417.2c-25.3-5.2-51.6-4.8-76.7,1.1c0.2-0.2,0.4-0.5,0.6-0.7c1.1-1.2,2.1-2.4,3.1-3.6
			c0.5-0.5,0.9-1.1,1.4-1.6c0.2-0.3,0.4-0.6,0.5-0.8c13.1-17.2,19.6-38.7,18.3-60.6c-0.2-3-4.4-2.7-5.4-0.4
			c-10.2,22.9-17.8,46.8-27.9,69.6c-0.1,0.2-0.2,0.5-0.2,0.7c-0.7,0.2-1.3,0.4-2,0.6c-0.3,0.1-0.6,0.2-0.8,0.4
			c-2.2-30.9-5.5-61.7-9.9-92.3c-0.5-3.4-4.9-2.6-5.5,0.3c-6.9,33.7-2.9,69.2,11.1,100.6c-3.1,4-6,8.1-8.9,12.3
			c-11.4-31.8-27.2-61.9-46.9-89.4c-1.8-2.5-5.1-0.1-4.9,2.3c3.4,36,26,65.7,47.6,93.2c-2.8,4.3-5.6,8.6-8.3,13
			c-19.4-29.5-39.4-58.9-65.9-82.5c-2.2-1.9-5.2,1.2-4.1,3.5c15.7,33.1,37.9,62.8,65.1,87.3c-2.5,4.3-4.9,8.7-7.2,13.1
			c-18.4-25.3-43-45.7-71.2-59.3c-2.1-1-4.7,1.8-3.5,3.8c17.4,27.5,51.7,36.4,71.5,61.6c-2.2,4.5-4.4,9-6.5,13.6
			c-1.4,3.1-2.8,6.3-4.1,9.4c-3.5-3.3-6.9-6.9-10.3-10.3c-9.8-10.1-20.3-19.5-31.7-27.9c-12.6-9.3-26-17.4-40.1-24.3
			c-2.8-1.4-4.4,2.4-3.1,4.4c20.3,29.4,48.7,52.7,81.4,67.1c-11.2,28.6-19,58.5-23.2,88.9c-2.8,20.8-3.9,41.8-3.1,62.8
			c0.1,3.5,5.7,4.1,5.6,0.5c-1.3-36.9,2.9-73.9,12.5-109.6c3.7-13.8,8.2-27.4,13.4-40.7c0.7,0,1.3-0.4,1.8-0.9
			c4.3,3.2,8.8,6.1,13.6,8.6c12.7,6.7,26.3,11.3,39.7,16.1c17.1,6.2,34.2,12.4,51.2,18.6c2.9,1.1,5.3-3.3,2.5-4.9
			c-33-19.6-66.8-39.4-104.7-47.5c2.9-6.9,6-13.7,9.4-20.4c30,22,66.5,34.8,103.7,36.3c3.2,0.1,4.1-4.2,1.2-5.4
			c-33.3-13.9-67.1-26.5-101.3-37.8c2.5-4.8,5.1-9.5,7.8-14.2c0.4-0.4,0.6-0.8,0.8-1.3c0.1-0.2,0.2-0.3,0.3-0.5
			c0.1,0.1,0.2,0.1,0.4,0.2c34.5,14,71.1,22.4,108.3,24.8c3.2,0.2,4-4.1,1.2-5.4c-33.3-14.7-69-23.9-105.3-27.2
			c1.9-3.1,3.9-6.1,5.9-9.2c1.3-0.2,2.5-0.3,3.8-0.4c32.8,4.7,66,6.7,99.1,4.8l0,0l0,0c0.2,0,0.5,0,0.7,0c3.4-0.2,2.5-4.9-0.3-5.5
			c-32.6-6.9-66.2-8.5-99.3-4.9c3.6-5.2,7.3-10.3,11.2-15.4c29.7,5.5,60.6,2.2,88.5-9.2C1497.5,1421.3,1496.1,1417.7,1493.7,1417.2z
			"/>
		<path class="st2" d="M1072.5,1429c21.3,5.9,44,5.7,65.1-0.8c3.2,3.3,6.4,6.7,9.5,10.2c-24.4,0.2-48.7,4.2-71.8,12
			c-2,0.7-2.2,4.2,0.3,4c0.2,0,0.4,0,0.5,0h0l0,0c24.2-1.5,48.2-5.7,71.7-11.9c0.9,0,1.9,0,2.8,0c1.7,2,3.4,4.1,5,6.2
			c-26.1,5.5-51.2,15.2-74.2,28.7c-2,1.2-1,4.3,1.3,3.8c26.8-4.9,52.8-14.1,76.6-27.2c0.1-0.1,0.2-0.1,0.3-0.2
			c0.1,0.1,0.2,0.2,0.2,0.3c0.2,0.4,0.4,0.7,0.7,0.9c2.4,3.2,4.7,6.4,6.9,9.6c-23.9,11.1-47.5,23.2-70.5,36.1c-2,1.1-1,4.2,1.3,3.8
			c26.9-4.3,52.3-16.7,72.3-35.2c3,4.6,5.8,9.3,8.5,14c-26.9,9.1-49.8,26.4-72.1,43.4c-1.9,1.4,0.2,4.4,2.3,3.4
			c11.9-6,23.8-11.9,35.7-17.9c9.3-4.7,18.9-9.2,27.5-15.1c3.2-2.2,6.3-4.7,9.1-7.4c0.4,0.3,0.8,0.5,1.4,0.5
			c4.9,9.2,9.3,18.7,13.2,28.5c10,25.1,16.2,51.7,18.4,78.6c0.2,2.6,4.2,1.8,4-0.8c-1.2-15.3-3.8-30.5-7.6-45.4
			c-5.6-21.8-13.8-42.9-24.4-62.7c22.5-13.2,41.2-32.6,53.5-55.7c0.8-1.6-0.7-4.2-2.6-3c-9.6,6.2-18.7,13.2-27.1,21.1
			c-7.5,7.1-14.4,14.8-20.7,23c-2.2,2.8-4.3,5.7-6.6,8.4c-1.2-2.2-2.5-4.4-3.8-6.5c-1.9-3.1-3.9-6.2-5.9-9.3
			c12.2-20,36.4-29.3,46.8-50.8c0.8-1.6-1.4-3.4-2.8-2.5c-19.3,12.3-35.5,29.2-46.7,49.2c-2.1-3-4.2-6-6.4-8.9
			c17.7-20.1,31.3-43.6,39.9-69c0.6-1.8-1.8-3.8-3.3-2.2c-17.3,19.4-29.3,42.5-41,65.6c-2.3-3-4.7-5.9-7.1-8.7
			c13.4-21.9,27.3-45.3,26.7-71.8c0-1.8-2.7-3.2-3.7-1.3c-12,21.7-20.9,44.9-26.5,69c-2.5-2.8-5-5.5-7.5-8.2
			c7.6-24,7.4-50.2-0.5-74.1c-0.7-2-4-2.2-4,0.3c-0.6,22.7-0.4,45.3,0.6,68c-0.2-0.1-0.4-0.2-0.6-0.2c-0.5-0.1-1-0.2-1.5-0.3
			c0-0.2-0.1-0.3-0.2-0.5c-9.3-15.8-16.9-32.5-26.2-48.3c-0.9-1.5-4-1.4-3.9,0.8c0.9,16.1,7.5,31.1,18.5,42.5
			c0.1,0.2,0.2,0.4,0.4,0.6c0.4,0.3,0.8,0.7,1.1,1c0.8,0.8,1.7,1.6,2.5,2.3c0.2,0.2,0.3,0.3,0.5,0.5c-18.8-2.1-37.9-0.2-55.9,5.7
			C1071,1425.7,1070.3,1428.4,1072.5,1429z"/>
		
			<linearGradient id="SVGID_1_" gradientUnits="userSpaceOnUse" x1="1240.7959" y1="1596.7012" x2="1235.2927" y2="1711.5389" gradientTransform="matrix(0.9994 -3.364409e-02 3.364409e-02 0.9994 -52.4227 41.6067)">
			<stop  offset="0" style="stop-color:#B28CF3"/>
			<stop  offset="1" style="stop-color:#945EF2"/>
		</linearGradient>
		<path class="st3" d="M1562.3,1624.4c-22.6-8.8-45.5,0.3-68.6,0.6c-13.2,0.2-24.5-4-34.8-12.2c-8.1-6.5-15.1-14.1-23.2-20.6
			c-7.5-6-15.9-11-25.6-12.4c-12.7-1.8-25.4,2.5-38,0.6c-12.8-1.9-18.7-12.3-27.9-19.9c-7.9-6.5-17-8.4-26.9-6.1
			c-12.2,2.9-22.7,10.6-35.1,12.8c-10.1,1.8-20.2-0.7-29.6-4.2c-18.3-6.8-35.9-18.8-55.9-19.7c-10-0.4-19.1,2.9-27,8.8
			c-9.1,6.8-17.2,16.2-29.2,17c-12.2,0.8-23.7-5.6-35.8-6.5c-9-0.6-17.4,2.3-23.7,8.8c-12.5,12.8-14.1,33.7-28.6,44.7
			c-10.6,8.1-24.9,5.3-37.2,6.3c-10.6,0.9-20,4.8-28.1,11.9c-17.9,15.6-25.2,39.6-42.4,55.8c-3.1,2.9-6.4,5.5-9.9,7.6
			c-11.7-1.8-23.4-3.6-35.1-5.5c-3.6-0.6-4.9,4.9-1.3,5.5c8.8,1.5,17.7,2.9,26.5,4.2c-4.9,1.3-10.1,1.5-15.4,0
			c-3.5-1-4.8,4.6-1.3,5.5c10,2.8,19.4,0.8,27.8-3.8c106,15.7,213.2,23.2,320.3,22c60.1-0.6,120.2-4,180.1-10.1
			c29.3-3,58.8-6.2,87.9-11.1c22.1-3.6,46.2-11.1,56.3-33.1C1589.3,1652.4,1581.9,1632,1562.3,1624.4z"/>
		<g>
			<g>
				
					<linearGradient id="SVGID_2_" gradientUnits="userSpaceOnUse" x1="1198.311" y1="1244.3218" x2="1249.782" y2="1614.1504" gradientTransform="matrix(-0.9823 -0.1874 -0.1874 0.9823 3204.5723 269.9014)">
					<stop  offset="1.953295e-02" style="stop-color:#F44599"/>
					<stop  offset="1" style="stop-color:#945EF2"/>
				</linearGradient>
				<path class="st4" d="M1805.9,1478.4c-4.1,15.5-14.1,26.5-25,37.7c-5.5,5.7-10.9,11.5-14.5,18.5c-3.2,6.2-4.9,13.1-6,19.9
					c-2.2,13.9-1.9,28-4.2,41.9c-2.3,14.2-8,27.6-18.6,37.6c-22.9,21.4-56.5,22.7-84.7,12.3c-14.5-5.3-29.3-12.8-39.1-25.1
					c-8.7-10.9-11.4-24.6-9-38.2c5.5-31.5,33.1-49.9,57.2-67.1c13.4-9.6,26.9-20.1,35.6-34.4c4.2-6.9,6.8-14.3,7.8-22.3
					c0.9-7.4,0.7-15,1.3-22.4c0.6-7.6,1.9-15.1,5.2-22.1c3.2-6.5,8.2-12,13.7-16.6c11.5-9.7,25.2-16.9,33.3-30.1
					c8.3-13.5,11.8-29.1,18.6-43.3c5.4-11.4,16.6-29.7,31.8-27.2c6.5,1.1,11.3,6,12.1,12.5c0.2,1.4-0.2,2.5-0.8,3.3
					c10.5,24-1.3,52.6-7.9,76.5c-4.2,15.3-4.6,30.3-4.1,46.1C1808.9,1450,1809.5,1464.6,1805.9,1478.4z"/>
				<path class="st5" d="M1725,1432c0.5-6.4,10.6-6.7,10.1-0.3c-1.9,23.3-0.5,46.6,4.3,69.4c4.5-10.7,8.6-21.6,12.4-32.6
					c9.3-27.4,16.7-55.3,24-83.3c1.6-6.3,11.4-3.9,9.8,2.3c-12.9,49.2-26,99.1-49.6,144.5c-11.7,22.4-26.2,42.9-42.7,62
					c-0.2,0.2-0.3,0.4-0.5,0.6c10.2-3.3,20.4-6.6,30.7-9.9c6.2-2,9,7.7,2.8,9.7c-12.8,4.1-25.5,8.2-38.3,12.3
					c-2.1,0.7-3.7,0-4.8-1.2c-13.3,14.8-26.8,29.4-38.7,45.4c-15.8,21.3-28.6,45.3-32.1,71.8c-0.8,6.4-10.6,4-9.8-2.3
					c6.4-48.8,41.5-86.1,72.9-121.3c16.9-18.9,32.7-38.2,45.3-60.2c4.3-7.6,8.3-15.3,12.1-23.1c-0.2-0.4-0.4-0.8-0.5-1.3
					C1725.2,1487.6,1722.7,1459.7,1725,1432z"/>
				
					<linearGradient id="SVGID_3_" gradientUnits="userSpaceOnUse" x1="1251.1566" y1="1366.2244" x2="1393.2238" y2="1568.9353" gradientTransform="matrix(-0.9823 -0.1874 -0.1874 0.9823 3204.5723 269.9014)">
					<stop  offset="0.2831" style="stop-color:#945EF2"/>
					<stop  offset="0.9313" style="stop-color:#751880"/>
				</linearGradient>
				<path class="st6" d="M1646.7,1528.8c4,10.5,8.4,20.9,7.9,32.4c-0.9,23.4-16.4,42.1-33.2,56.9c-3.9,3.5-8,6.8-12.1,10.1
					c-0.6,2.3-3,4.2-5.8,2.9c-17.9-8.6-27.3-27.3-31.1-45.9c-4.7-22.8-1.1-46.4-5.3-69.2c-3.9-21.2-13.9-42.3-8.6-64.2
					c4.6-19,18.4-33.5,28.3-49.7c4.7-7.7,8.8-16.1,9.5-25.3c0.8-10.1-3.7-21.8,4.7-29.9c8.9-8.7,19.9-0.8,27.8,5.1
					c8.3,6.3,16.5,12.9,22.8,21.2c29.4,38.4-5.4,83.3-9.8,123.4C1640.7,1507.8,1642.7,1518.3,1646.7,1528.8z"/>
				<path class="st7" d="M1616.1,1578c2.5-3.5,5.2-6.7,8.3-9.8c3.8-3.8,10.1,1.7,6.3,5.5c-5.7,5.7-10.3,12.1-13.8,19.2
					c0.8,23.2-0.1,46.4-6.1,69.1c-5.4,20.3-14.6,39.6-28.9,55.1c-3.6,3.9-9.9-1.5-6.3-5.5c25.8-28.1,33.3-67.5,33.3-104.4
					c0-3.7-0.1-7.4-0.2-11.1c-0.9-1.1-1.3-2.6-0.5-4.3c0.1-0.3,0.2-0.5,0.4-0.8c-0.5-12.6-1.5-25.1-2.5-37.7
					c-0.4-0.3-0.8-0.7-1.1-1.2c-12.3-19.5-21.8-40.8-28-63c-1.4-5.2,6.4-8,7.9-2.8c4.7,17.1,11.4,33.5,19.9,48.9
					c-1.2-18-1.9-35.9-0.5-54c1.8-22.9,7-45.6,17.9-65.9c2.5-4.7,10.1-1.1,7.5,3.7c-7.2,13.4-11.8,27.6-14.5,42.2
					c2.8-3.9,5.7-7.9,8.5-11.8c3.1-4.4,9.4,1.2,6.3,5.5c-5.7,7.9-11.5,15.9-17.2,23.8c-1.9,20.5-0.9,41.4,0.6,61.8
					C1614.2,1553,1615.3,1565.5,1616.1,1578z"/>
			</g>
			<linearGradient id="SVGID_4_" gradientUnits="userSpaceOnUse" x1="970.6382" y1="1557.4263" x2="958.2878" y2="1815.1469">
				<stop  offset="0" style="stop-color:#751880"/>
				<stop  offset="1" style="stop-color:#3D116A"/>
			</linearGradient>
			<path class="st8" d="M1745.7,1729.2c-8-18.1-28.7-27.6-46.5-33.2c-26.8-8.4-54.9-14-82.3-20.6c-58.1-13.8-116.5-26.1-175.8-33.7
				c-58.4-7.5-117.3-9.8-175.9-4.4c-57.2,5.3-113.5,16.4-170,26.2c-55.7,9.6-112,18-168.7,17c-55.9-1-109.3-13.3-160.6-35.5
				c-94.6-41-181.5-103.4-287.4-111.1c-46.8-3.4-95.8,4.8-135.1,31.7c-36.8,25.2-61.1,63.2-91.8,94.8
				c-13.3,13.7-28.1,26.2-45.3,34.6c-13.8,1.4-26.2,11.8-29.9,26.2c-5.6,22,11.6,43.1,30.7,51.6c25.7,11.4,56.7,7.9,84.1,8.1
				c30.6,0.2,61.2,0.3,91.8,0.5c123,0.6,245.9,1.2,368.9,1.8c122.4,0.6,244.9,1.2,367.3,1.8c123,0.6,245.9,1.2,368.9,1.8
				c61.7,0.3,123.5,0.7,185.2,0.9c19,0.1,40.3-1.6,56.8-12.1C1745.8,1765.7,1753.5,1746.9,1745.7,1729.2z"/>
		</g>
		<g>
			<path class="st9" d="M1735.6,212.4H317.9c-18.7,0-33.8,15.1-33.8,33.8v939.5c0,18.7,15.1,33.8,33.8,33.8h1417.7
				c18.7,0,33.8-15.1,33.8-33.8V246.3C1769.4,227.6,1754.3,212.4,1735.6,212.4z"/>
			<g>
				<path class="st10" d="M665.4,829.4H400.8c-6.5,0-11.8-5.3-11.8-11.8V570c0-6.5,5.3-11.8,11.8-11.8h264.6
					c6.5,0,11.8,5.3,11.8,11.8v247.6C677.2,824.1,671.9,829.4,665.4,829.4z"/>
				<path class="st11" d="M655.4,558.2H410.8c-12,0-21.8,9.8-21.8,21.8v9.4h288.1V580C677.2,568,667.4,558.2,655.4,558.2z"/>
			</g>
			<path class="st12" d="M1735,212.2H318.4c-19,0-34.4,15.4-34.4,34.4v43.8h1485.4v-43.8C1769.4,227.6,1754,212.2,1735,212.2z"/>
			<g>
				<path class="st10" d="M1063,374.1H487.6c-25.9,0-46.9,21-46.9,46.9v0c0,25.9,21,46.9,46.9,46.9H1063c25.9,0,46.9-21,46.9-46.9v0
					C1109.9,395.1,1088.9,374.1,1063,374.1z"/>
				<g>
					<path class="st13" d="M555.9,389.6L555.9,389.6c-17.6,0-31.9,14.3-31.9,31.9v0c0,17.6,14.3,31.9,31.9,31.9l0,0
						c17.6,0,31.9-14.3,31.9-31.9v0C587.8,403.8,573.5,389.6,555.9,389.6z"/>
					<path class="st7" d="M643.7,389.6L643.7,389.6c-17.6,0-31.9,14.3-31.9,31.9v0c0,17.6,14.3,31.9,31.9,31.9l0,0
						c17.6,0,31.9-14.3,31.9-31.9v0C675.5,403.8,661.3,389.6,643.7,389.6z"/>
					<path class="st11" d="M731.4,389.6c-17.6,0-31.9,14.3-31.9,31.9v0c0,17.6,14.3,31.9,31.9,31.9c17.6,0,31.9-14.3,31.9-31.9v0
						C763.3,403.8,749,389.6,731.4,389.6z"/>
					<path class="st1" d="M731.4,348.5L731.4,348.5c-22.7,0-41,18.4-41,41v0c0,22.7,18.4,41,41,41l0,0c22.7,0,41-18.4,41-41v0
						C772.4,366.9,754.1,348.5,731.4,348.5z"/>
					<path class="st14" d="M819.2,389.6L819.2,389.6c-17.6,0-31.9,14.3-31.9,31.9v0c0,17.6,14.3,31.9,31.9,31.9l0,0
						c17.6,0,31.9-14.3,31.9-31.9v0C851,403.8,836.8,389.6,819.2,389.6z"/>
					<path class="st2" d="M906.9,389.6c-17.6,0-31.9,14.3-31.9,31.9v0c0,17.6,14.3,31.9,31.9,31.9c17.6,0,31.9-14.3,31.9-31.9v0
						C938.8,403.8,924.5,389.6,906.9,389.6z"/>
					<path class="st15" d="M994.7,389.6L994.7,389.6c-17.6,0-31.9,14.3-31.9,31.9v0c0,17.6,14.3,31.9,31.9,31.9l0,0
						c17.6,0,31.9-14.3,31.9-31.9v0C1026.6,403.8,1012.3,389.6,994.7,389.6z"/>
				</g>
				<polygon class="st11" points="476.3,421.4 493.3,436.5 493.3,421.4 493.3,406.4 				"/>
				<polygon class="st11" points="1066.4,421.4 1049.4,406.4 1049.4,421.4 1049.4,436.5 				"/>
			</g>
			<g>
				
					<linearGradient id="SVGID_5_" gradientUnits="userSpaceOnUse" x1="-5532.2729" y1="1064.9187" x2="-5471.8716" y2="1215.3057" gradientTransform="matrix(-1 0 0 1 -5030 0)">
					<stop  offset="0" style="stop-color:#F27370"/>
					<stop  offset="1" style="stop-color:#FFABAB"/>
				</linearGradient>
				<path class="st16" d="M533.4,812.4c0,0-23.1,7.7-24,59.2c-0.9,51.5,3.7,117.1-4.6,151.3c-8.3,34.2-25.4,123.4-41.1,160.9
					c-15.3,36.5-18.5,52.2-12.9,68.9c5.5,16.6,56.2-1.8,56.2-1.8l52.5-197.4c0,0,28.7-133.1,25.9-140.5
					C582.4,905.4,533.4,812.4,533.4,812.4z"/>
				
					<linearGradient id="SVGID_6_" gradientUnits="userSpaceOnUse" x1="-5489.2529" y1="1002.5993" x2="-5566.2686" y2="952.9162" gradientTransform="matrix(-1 0 0 1 -5030 0)">
					<stop  offset="0" style="stop-color:#B28CF3"/>
					<stop  offset="1" style="stop-color:#945EF2"/>
				</linearGradient>
				<path class="st17" d="M550.5,1086.4c-1-1-2.1-1.8-3.2-2.6c-15.3-9.6-34.9-16.7-51.4-21.6c3.5-15.9,6.5-29.8,8.9-39.4
					c8.3-34.2,3.7-99.8,4.6-151.3c0.9-51.5,24-59.2,24-59.2s49,93.1,51.8,100.5c2.8,7.4-25.9,140.5-25.9,140.5L550.5,1086.4z"/>
				
					<linearGradient id="SVGID_7_" gradientUnits="userSpaceOnUse" x1="-5732.7813" y1="689.2065" x2="-5754.2959" y2="594.89" gradientTransform="matrix(-1 0 0 1 -5030 0)">
					<stop  offset="0" style="stop-color:#F27370"/>
					<stop  offset="1" style="stop-color:#FFABAB"/>
				</linearGradient>
				<path class="st18" d="M606.2,781.6c0,0,16.6,16.6,49.3-2.5c32.7-19.1,59.2-74,63.5-85.7s37.6-145.5,33.9-189.8
					c-3.7-44.4-16-102.3-10.5-99.8s9.9,36.4,14.8,38.2c4.9,1.8,33.3-1.8,35.1,12.3c1.8,14.2-11.1,40.1-11.1,57.9
					c0,17.9-4.4,180.5-6.8,193.5c-8.6,48.1-69,165.8-69,165.8l-73.3-21L606.2,781.6z"/>
				
					<linearGradient id="SVGID_8_" gradientUnits="userSpaceOnUse" x1="-5581.6704" y1="666.8534" x2="-5669.856" y2="751.0967" gradientTransform="matrix(-1 0 0 1 -5030 0)">
					<stop  offset="0" style="stop-color:#F27370"/>
					<stop  offset="1" style="stop-color:#FFABAB"/>
				</linearGradient>
				<path class="st19" d="M581.2,634.2c20.2-1.3,38.6,11.5,45.4,30.5c5.9,16.3,13.2,39.6,13.6,55.5c0.7,26.9-2.4,48.2-22.7,45.9
					c-20.4-2.2-43.5,5.8-67.7-20.7s-44.5-72.5-21-89.9C542.9,645.2,561.8,635.4,581.2,634.2z"/>
				
					<linearGradient id="SVGID_9_" gradientUnits="userSpaceOnUse" x1="-5620.4707" y1="1352.9271" x2="-5518.5601" y2="1538.3358" gradientTransform="matrix(-1 0 0 1 -5030 0)">
					<stop  offset="0" style="stop-color:#F27370"/>
					<stop  offset="1" style="stop-color:#FFABAB"/>
				</linearGradient>
				<path class="st20" d="M605.6,766.3c0,0,4.9,23.9,16,26.4c11.1,2.5,80.1,67.2,83.8,78.9c3.7,11.7-3.1,53.6-10.5,65.9
					c-7.4,12.3-19.1,59.8-14.8,75.8c4.3,16,28.4,67.8,33.9,139.9s-16,198.5-23.4,255.2c-7.4,56.7-56.7,215.7-41.9,242.8
					c14.8,27.1,40,54.2,66.2,59.2c26.2,4.9,44.7,48.1-46.5,22.2s-112.2-38.2-90-65.3c22.2-27.1,35.7-65.3,32-140.5s9.9-159,16-181.2
					S593.2,1147,593.2,1147s-30.8,187.4-57.9,220.6s-210.8,171.3-228,194.8c-17.3,23.4-9.9,69-4.9,88.8c4.9,19.7,22.2,50.5,3.7,48.1
					c-18.5-2.5-38.2-9.9-51.8-64.1s-48.2-95.9,4.9-108.5c65.3-15.4,78.9-70.3,109.7-107.2c30.8-37,92.5-74,101.1-98.6
					c8.6-24.7,3.7-160.2,38.2-225.6c34.5-65.3,40.1-90.6,40.1-117.1s-19.1-163.3-14.8-165.8c4.3-2.5,39.4-45.6,39.4-59.8
					C572.9,738.4,605.6,766.3,605.6,766.3z"/>
				
					<linearGradient id="SVGID_10_" gradientUnits="userSpaceOnUse" x1="-5745.7129" y1="888.8919" x2="-5577.6113" y2="782.8904" gradientTransform="matrix(-1 0 0 1 -5030 0)">
					<stop  offset="0" style="stop-color:#B28CF3"/>
					<stop  offset="1" style="stop-color:#945EF2"/>
				</linearGradient>
				<path class="st21" d="M548.2,978.2c0-19.7-10.6-100.6-14.2-141.7l27.9-24.1l44.3-39.1l1.7,1.3c1.2,3.6,3,7.8,5.3,11.2
					c7.8,3.2,21.9,5.2,42.3-6.7c32.7-19.1,59.2-74,63.5-85.7c1.5-4.1,6.5-23,12.3-47.7c12.8,6.1,29.3,11.8,45.8,12
					c-1,24.8-1.9,43.9-2.6,48c-8.6,48.1-69,165.8-69,165.8c3.7,11.7-3.1,53.6-10.5,65.9c-7.4,12.3-19.1,59.8-14.8,75.8
					c1.5,5.7,5.5,15.8,10.3,29.7l-74.7,18.7l-82.6-18C545.7,1013.7,548.2,996.2,548.2,978.2z"/>
				
					<linearGradient id="SVGID_11_" gradientUnits="userSpaceOnUse" x1="-5593.6982" y1="938.2878" x2="-5593.9487" y2="697.1087" gradientTransform="matrix(-1 0 0 1 -5030 0)">
					<stop  offset="0" style="stop-color:#153189"/>
					<stop  offset="1" style="stop-color:#081A42"/>
				</linearGradient>
				<path class="st22" d="M496.7,868.8c4.5,10.2-0.8,21.3-1.7,31.7c-0.6,7.6,0.9,15,5.5,21.2c8.5,11.4,23.9,16.2,37.6,16.4
					c11.1,0.1,22.1-2.6,33.1-3.9c12.3-1.5,23,0.3,35,2.8c16.8,3.6,33.1,1,41.7-15.5c4.8-9.2,5.4-19,4-28.7c-0.1-5.9-1.9-12-4.2-17.2
					c-0.2-0.4-0.3-0.7-0.5-1.1c-0.8-2.5-1.7-4.9-2.6-7.4c-0.4-1.1-1.1-1.8-1.8-2.3c-4.2-9.5-6.9-18.2-3.1-29.9
					c3.7-11.3,10-22.1,10.2-34.3c0.4-21.9-19-35.3-28.4-53c-13.2-24.8,12.8-47.9,9.3-73.7c-3.1-22.9-21.7-39.1-44-41.7
					c-0.3-0.1-0.7-0.2-1.1-0.3c-19.2-2.5-38.3,2-53.1,14.8c-15.4,13.3-23,33-27,52.4c-4.3,21.2-4.5,43-9.5,64.1
					c-4.8,20.3-18.8,38-20.9,58.9c-1,9.5,1,18.8,6.4,26.7C486.3,855.5,493.3,861.1,496.7,868.8z"/>
				
					<linearGradient id="SVGID_12_" gradientUnits="userSpaceOnUse" x1="-5766.3691" y1="1695.7858" x2="-5600.2939" y2="1695.7858" gradientTransform="matrix(-1 0 0 1 -5030 0)">
					<stop  offset="0" style="stop-color:#153189"/>
					<stop  offset="1" style="stop-color:#081A42"/>
				</linearGradient>
				<path class="st23" d="M589.9,1650.8c23.4,10.2,56,50.3,81.3,56.7c11,2.7,17.8-0.8,22.1-6c7,4.4,14.3,7.5,21.6,8.9
					c26.2,4.9,44.7,48.1-46.5,22.2c-91.2-25.9-112.2-38.2-90-65.3C582.6,1662.2,586.4,1656.8,589.9,1650.8z"/>
				
					<linearGradient id="SVGID_13_" gradientUnits="userSpaceOnUse" x1="-5344.3721" y1="1612.9066" x2="-5260.5864" y2="1612.9066" gradientTransform="matrix(-1 0 0 1 -5030 0)">
					<stop  offset="0" style="stop-color:#153189"/>
					<stop  offset="1" style="stop-color:#081A42"/>
				</linearGradient>
				<path class="st24" d="M254.2,1635.2c-13.6-54.2-48.2-95.9,4.9-108.5c0.4-0.1,0.8-0.2,1.2-0.3c3,10,5.4,22.1,6.8,35.4
					c3.9,36.2,7.4,58.2,11.1,74.9c2.1,9.4,13.7,11.4,23.3,11.4c0.2,1.1,0.5,2.1,0.7,3.1c4.9,19.7,22.2,50.5,3.7,48.1
					C287.5,1696.8,267.8,1689.4,254.2,1635.2z"/>
				
					<linearGradient id="SVGID_14_" gradientUnits="userSpaceOnUse" x1="-5591.8862" y1="1387.9927" x2="-5592.2656" y2="1021.9227" gradientTransform="matrix(-1 0 0 1 -5030 0)">
					<stop  offset="0" style="stop-color:#751880"/>
					<stop  offset="1" style="stop-color:#3D116A"/>
				</linearGradient>
				<path class="st25" d="M479.8,1218.5c4.2-43.9,11.7-91.7,28.4-123.2c15.5-29.4,25.2-50.7,31.1-67.7
					c71.7,27.8,126.6,9.7,146.1,1.2c8.7,24.2,24.3,68.1,28.6,124.4c1.1,14.5,1.1,31.3,0.4,49.2l0.2-0.2c0,0-4.6,217.3,21.7,241.3
					c0,0-22.7,13.5-56,16.4c-22.8,2.9-44.5,3.8-64.9,3c-1.5,0-3-0.1-4.5-0.2c-67.7-4.8-142.2-35.6-142.2-35.6
					c-29.2-13.9-51.5-29.2-66.1-40.6c-9-6.8-15.3-26.2-15.3-26.2C457.3,1343,475.5,1252,479.8,1218.5z"/>
				<g>
					<path class="st26" d="M640,1041c1.9-0.2,3.7-0.5,5.5-0.8c16.3,120.1-4.5,241.1-6.3,361.7c-0.3,20.4,0,40.8,1.1,61.2
						c-1.9,0.1-3.7,0.1-5.5,0.1c-5.8-110.3,12.4-220.6,11.5-331C645.9,1101.7,644.1,1071.2,640,1041z"/>
					<path class="st26" d="M447.2,1416c26.8-33.4,39.5-76.4,48.3-118.2c12.4-58.9,24.9-117.2,42-175c8.6-29.2,17.7-58.1,26.9-87.1
						c1.8,0.5,3.6,0.9,5.4,1.3c-17.5,55.3-34.9,110.8-48.7,167.2c-14,57-19.3,117.9-43.4,171.9c-6.8,15.2-15.2,29.7-25.5,42.6
						C450.5,1417.8,448.9,1416.9,447.2,1416z"/>
					<path class="st26" d="M590.7,1325.3c6.7-31,13.9-62,18.1-93.4c4.4-32.7,5.7-65.7,5.2-98.6c-0.4-30.3-2.2-60.6-4.2-90.9
						c1.9,0.1,3.7,0.1,5.6,0.1c3.9,58.4,7,117.1,0.7,175.4c-6.8,63.2-26.1,124.3-34.1,187.4c-2.2,17.7-3.8,35.5-4.5,53.3
						c-1.8-0.3-3.5-0.6-5.3-1C574.4,1413.1,581.2,1369.1,590.7,1325.3z"/>
					<path class="st26" d="M663.1,1036.5c1.9-0.5,3.6-1,5.3-1.5c44.6,117.4,8.2,245.7,23.5,367.5c2.3,18.2,5.7,36.2,10.7,53.8
						c-1.8,0.4-3.6,0.8-5.5,1.2c-29.5-104.7-3.3-218.9-13.2-326.6C681,1098.7,674.6,1066.7,663.1,1036.5z"/>
					<path class="st26" d="M524,1315.2c14.7-61.4,37.2-120.8,48.6-183c5.7-30.8,8.3-62.1,6.1-93.3c1.9,0.4,3.8,0.7,5.6,1
						c3.8,56.8-8.8,113.2-24.3,167.7c-17.4,61-35.9,121.2-45.1,184.1c-2.4,16.5-4.3,33.1-5.7,49.8c-1.8-0.6-3.6-1.2-5.4-1.7
						C507.5,1397.9,514.2,1356.2,524,1315.2z"/>
				</g>
			</g>
			<g>
				<rect x="875.1" y="674.1" class="st5" width="318.7" height="318.7"/>
				<rect x="1317.5" y="674.1" class="st12" width="318.7" height="318.7"/>
				<g>
					<g>
						<path class="st5" d="M1219.1,1019.1h-5.5c-0.6,0-1-0.4-1-1s0.4-1,1-1h4.5v-4.5c0-0.6,0.4-1,1-1s1,0.4,1,1v5.5
							C1220.1,1018.7,1219.7,1019.1,1219.1,1019.1z"/>
						<path class="st5" d="M1202.8,1019.1h-10.9c-0.6,0-1-0.4-1-1s0.4-1,1-1h10.9c0.6,0,1,0.4,1,1S1203.3,1019.1,1202.8,1019.1z
							 M1181,1019.1h-10.9c-0.6,0-1-0.4-1-1s0.4-1,1-1h10.9c0.6,0,1,0.4,1,1S1181.6,1019.1,1181,1019.1z M1159.3,1019.1h-10.9
							c-0.6,0-1-0.4-1-1s0.4-1,1-1h10.9c0.6,0,1,0.4,1,1S1159.9,1019.1,1159.3,1019.1z M1137.6,1019.1h-10.9c-0.6,0-1-0.4-1-1
							s0.4-1,1-1h10.9c0.6,0,1,0.4,1,1S1138.2,1019.1,1137.6,1019.1z M1115.9,1019.1H1105c-0.6,0-1-0.4-1-1s0.4-1,1-1h10.9
							c0.6,0,1,0.4,1,1S1116.4,1019.1,1115.9,1019.1z M1094.2,1019.1h-10.9c-0.6,0-1-0.4-1-1s0.4-1,1-1h10.9c0.6,0,1,0.4,1,1
							S1094.7,1019.1,1094.2,1019.1z M1072.4,1019.1h-10.9c-0.6,0-1-0.4-1-1s0.4-1,1-1h10.9c0.6,0,1,0.4,1,1
							S1073,1019.1,1072.4,1019.1z M1050.7,1019.1h-10.9c-0.6,0-1-0.4-1-1s0.4-1,1-1h10.9c0.6,0,1,0.4,1,1
							S1051.3,1019.1,1050.7,1019.1z M1029,1019.1h-10.9c-0.6,0-1-0.4-1-1s0.4-1,1-1h10.9c0.6,0,1,0.4,1,1
							S1029.5,1019.1,1029,1019.1z M1007.3,1019.1h-10.9c-0.6,0-1-0.4-1-1s0.4-1,1-1h10.9c0.6,0,1,0.4,1,1
							S1007.8,1019.1,1007.3,1019.1z M985.5,1019.1h-10.9c-0.6,0-1-0.4-1-1s0.4-1,1-1h10.9c0.6,0,1,0.4,1,1
							S986.1,1019.1,985.5,1019.1z M963.8,1019.1H953c-0.6,0-1-0.4-1-1s0.4-1,1-1h10.9c0.6,0,1,0.4,1,1S964.4,1019.1,963.8,1019.1z
							 M942.1,1019.1h-10.9c-0.6,0-1-0.4-1-1s0.4-1,1-1h10.9c0.6,0,1,0.4,1,1S942.6,1019.1,942.1,1019.1z M920.4,1019.1h-10.9
							c-0.6,0-1-0.4-1-1s0.4-1,1-1h10.9c0.6,0,1,0.4,1,1S920.9,1019.1,920.4,1019.1z M898.6,1019.1h-10.9c-0.6,0-1-0.4-1-1
							s0.4-1,1-1h10.9c0.6,0,1,0.4,1,1S899.2,1019.1,898.6,1019.1z M876.9,1019.1h-10.9c-0.6,0-1-0.4-1-1s0.4-1,1-1h10.9
							c0.6,0,1,0.4,1,1S877.5,1019.1,876.9,1019.1z"/>
						<path class="st5" d="M855.2,1019.1h-5.5c-0.6,0-1-0.4-1-1v-5.5c0-0.6,0.4-1,1-1s1,0.4,1,1v4.5h4.5c0.6,0,1,0.4,1,1
							S855.8,1019.1,855.2,1019.1z"/>
						<path class="st5" d="M849.7,1002.8c-0.6,0-1-0.4-1-1v-10.9c0-0.6,0.4-1,1-1s1,0.4,1,1v10.9
							C850.7,1002.3,850.3,1002.8,849.7,1002.8z M849.7,981c-0.6,0-1-0.4-1-1v-10.9c0-0.6,0.4-1,1-1s1,0.4,1,1V980
							C850.7,980.6,850.3,981,849.7,981z M849.7,959.3c-0.6,0-1-0.4-1-1v-10.9c0-0.6,0.4-1,1-1s1,0.4,1,1v10.9
							C850.7,958.9,850.3,959.3,849.7,959.3z M849.7,937.6c-0.6,0-1-0.4-1-1v-10.9c0-0.6,0.4-1,1-1s1,0.4,1,1v10.9
							C850.7,937.1,850.3,937.6,849.7,937.6z M849.7,915.9c-0.6,0-1-0.4-1-1V904c0-0.6,0.4-1,1-1s1,0.4,1,1v10.9
							C850.7,915.4,850.3,915.9,849.7,915.9z M849.7,894.1c-0.6,0-1-0.4-1-1v-10.9c0-0.6,0.4-1,1-1s1,0.4,1,1v10.9
							C850.7,893.7,850.3,894.1,849.7,894.1z M849.7,872.4c-0.6,0-1-0.4-1-1v-10.9c0-0.6,0.4-1,1-1s1,0.4,1,1v10.9
							C850.7,872,850.3,872.4,849.7,872.4z M849.7,850.7c-0.6,0-1-0.4-1-1v-10.9c0-0.6,0.4-1,1-1s1,0.4,1,1v10.9
							C850.7,850.3,850.3,850.7,849.7,850.7z M849.7,829c-0.6,0-1-0.4-1-1v-10.9c0-0.6,0.4-1,1-1s1,0.4,1,1V828
							C850.7,828.5,850.3,829,849.7,829z M849.7,807.3c-0.6,0-1-0.4-1-1v-10.9c0-0.6,0.4-1,1-1s1,0.4,1,1v10.9
							C850.7,806.8,850.3,807.3,849.7,807.3z M849.7,785.5c-0.6,0-1-0.4-1-1v-10.9c0-0.6,0.4-1,1-1s1,0.4,1,1v10.9
							C850.7,785.1,850.3,785.5,849.7,785.5z M849.7,763.8c-0.6,0-1-0.4-1-1v-10.9c0-0.6,0.4-1,1-1s1,0.4,1,1v10.9
							C850.7,763.4,850.3,763.8,849.7,763.8z M849.7,742.1c-0.6,0-1-0.4-1-1v-10.9c0-0.6,0.4-1,1-1s1,0.4,1,1v10.9
							C850.7,741.6,850.3,742.1,849.7,742.1z M849.7,720.4c-0.6,0-1-0.4-1-1v-10.9c0-0.6,0.4-1,1-1s1,0.4,1,1v10.9
							C850.7,719.9,850.3,720.4,849.7,720.4z M849.7,698.6c-0.6,0-1-0.4-1-1v-10.9c0-0.6,0.4-1,1-1s1,0.4,1,1v10.9
							C850.7,698.2,850.3,698.6,849.7,698.6z M849.7,676.9c-0.6,0-1-0.4-1-1v-10.9c0-0.6,0.4-1,1-1s1,0.4,1,1v10.9
							C850.7,676.5,850.3,676.9,849.7,676.9z"/>
						<path class="st5" d="M849.7,655.2c-0.6,0-1-0.4-1-1v-5.5c0-0.6,0.4-1,1-1h5.5c0.6,0,1,0.4,1,1s-0.4,1-1,1h-4.5v4.5
							C850.7,654.7,850.3,655.2,849.7,655.2z"/>
						<path class="st5" d="M1202.8,649.7h-10.9c-0.6,0-1-0.4-1-1s0.4-1,1-1h10.9c0.6,0,1,0.4,1,1S1203.3,649.7,1202.8,649.7z
							 M1181,649.7h-10.9c-0.6,0-1-0.4-1-1s0.4-1,1-1h10.9c0.6,0,1,0.4,1,1S1181.6,649.7,1181,649.7z M1159.3,649.7h-10.9
							c-0.6,0-1-0.4-1-1s0.4-1,1-1h10.9c0.6,0,1,0.4,1,1S1159.9,649.7,1159.3,649.7z M1137.6,649.7h-10.9c-0.6,0-1-0.4-1-1
							s0.4-1,1-1h10.9c0.6,0,1,0.4,1,1S1138.2,649.7,1137.6,649.7z M1115.9,649.7H1105c-0.6,0-1-0.4-1-1s0.4-1,1-1h10.9
							c0.6,0,1,0.4,1,1S1116.4,649.7,1115.9,649.7z M1094.2,649.7h-10.9c-0.6,0-1-0.4-1-1s0.4-1,1-1h10.9c0.6,0,1,0.4,1,1
							S1094.7,649.7,1094.2,649.7z M1072.4,649.7h-10.9c-0.6,0-1-0.4-1-1s0.4-1,1-1h10.9c0.6,0,1,0.4,1,1S1073,649.7,1072.4,649.7z
							 M1050.7,649.7h-10.9c-0.6,0-1-0.4-1-1s0.4-1,1-1h10.9c0.6,0,1,0.4,1,1S1051.3,649.7,1050.7,649.7z M1029,649.7h-10.9
							c-0.6,0-1-0.4-1-1s0.4-1,1-1h10.9c0.6,0,1,0.4,1,1S1029.5,649.7,1029,649.7z M1007.3,649.7h-10.9c-0.6,0-1-0.4-1-1s0.4-1,1-1
							h10.9c0.6,0,1,0.4,1,1S1007.8,649.7,1007.3,649.7z M985.5,649.7h-10.9c-0.6,0-1-0.4-1-1s0.4-1,1-1h10.9c0.6,0,1,0.4,1,1
							S986.1,649.7,985.5,649.7z M963.8,649.7H953c-0.6,0-1-0.4-1-1s0.4-1,1-1h10.9c0.6,0,1,0.4,1,1S964.4,649.7,963.8,649.7z
							 M942.1,649.7h-10.9c-0.6,0-1-0.4-1-1s0.4-1,1-1h10.9c0.6,0,1,0.4,1,1S942.6,649.7,942.1,649.7z M920.4,649.7h-10.9
							c-0.6,0-1-0.4-1-1s0.4-1,1-1h10.9c0.6,0,1,0.4,1,1S920.9,649.7,920.4,649.7z M898.6,649.7h-10.9c-0.6,0-1-0.4-1-1s0.4-1,1-1
							h10.9c0.6,0,1,0.4,1,1S899.2,649.7,898.6,649.7z M876.9,649.7h-10.9c-0.6,0-1-0.4-1-1s0.4-1,1-1h10.9c0.6,0,1,0.4,1,1
							S877.5,649.7,876.9,649.7z"/>
						<path class="st5" d="M1219.1,655.2c-0.6,0-1-0.4-1-1v-4.5h-4.5c-0.6,0-1-0.4-1-1s0.4-1,1-1h5.5c0.6,0,1,0.4,1,1v5.5
							C1220.1,654.7,1219.7,655.2,1219.1,655.2z"/>
						<path class="st5" d="M1219.1,1002.8c-0.6,0-1-0.4-1-1v-10.9c0-0.6,0.4-1,1-1s1,0.4,1,1v10.9
							C1220.1,1002.3,1219.7,1002.8,1219.1,1002.8z M1219.1,981c-0.6,0-1-0.4-1-1v-10.9c0-0.6,0.4-1,1-1s1,0.4,1,1V980
							C1220.1,980.6,1219.7,981,1219.1,981z M1219.1,959.3c-0.6,0-1-0.4-1-1v-10.9c0-0.6,0.4-1,1-1s1,0.4,1,1v10.9
							C1220.1,958.9,1219.7,959.3,1219.1,959.3z M1219.1,937.6c-0.6,0-1-0.4-1-1v-10.9c0-0.6,0.4-1,1-1s1,0.4,1,1v10.9
							C1220.1,937.1,1219.7,937.6,1219.1,937.6z M1219.1,915.9c-0.6,0-1-0.4-1-1V904c0-0.6,0.4-1,1-1s1,0.4,1,1v10.9
							C1220.1,915.4,1219.7,915.9,1219.1,915.9z M1219.1,894.1c-0.6,0-1-0.4-1-1v-10.9c0-0.6,0.4-1,1-1s1,0.4,1,1v10.9
							C1220.1,893.7,1219.7,894.1,1219.1,894.1z M1219.1,872.4c-0.6,0-1-0.4-1-1v-10.9c0-0.6,0.4-1,1-1s1,0.4,1,1v10.9
							C1220.1,872,1219.7,872.4,1219.1,872.4z M1219.1,850.7c-0.6,0-1-0.4-1-1v-10.9c0-0.6,0.4-1,1-1s1,0.4,1,1v10.9
							C1220.1,850.3,1219.7,850.7,1219.1,850.7z M1219.1,829c-0.6,0-1-0.4-1-1v-10.9c0-0.6,0.4-1,1-1s1,0.4,1,1V828
							C1220.1,828.5,1219.7,829,1219.1,829z M1219.1,807.3c-0.6,0-1-0.4-1-1v-10.9c0-0.6,0.4-1,1-1s1,0.4,1,1v10.9
							C1220.1,806.8,1219.7,807.3,1219.1,807.3z M1219.1,785.5c-0.6,0-1-0.4-1-1v-10.9c0-0.6,0.4-1,1-1s1,0.4,1,1v10.9
							C1220.1,785.1,1219.7,785.5,1219.1,785.5z M1219.1,763.8c-0.6,0-1-0.4-1-1v-10.9c0-0.6,0.4-1,1-1s1,0.4,1,1v10.9
							C1220.1,763.4,1219.7,763.8,1219.1,763.8z M1219.1,742.1c-0.6,0-1-0.4-1-1v-10.9c0-0.6,0.4-1,1-1s1,0.4,1,1v10.9
							C1220.1,741.6,1219.7,742.1,1219.1,742.1z M1219.1,720.4c-0.6,0-1-0.4-1-1v-10.9c0-0.6,0.4-1,1-1s1,0.4,1,1v10.9
							C1220.1,719.9,1219.7,720.4,1219.1,720.4z M1219.1,698.6c-0.6,0-1-0.4-1-1v-10.9c0-0.6,0.4-1,1-1s1,0.4,1,1v10.9
							C1220.1,698.2,1219.7,698.6,1219.1,698.6z M1219.1,676.9c-0.6,0-1-0.4-1-1v-10.9c0-0.6,0.4-1,1-1s1,0.4,1,1v10.9
							C1220.1,676.5,1219.7,676.9,1219.1,676.9z"/>
					</g>
					<rect x="838.6" y="637.6" class="st27" width="22.2" height="22.2"/>
					<rect x="1208" y="637.6" class="st27" width="22.2" height="22.2"/>
					<rect x="838.6" y="1007" class="st27" width="22.2" height="22.2"/>
					<g>
						<rect x="1023.3" y="637.6" class="st27" width="22.2" height="22.2"/>
						<rect x="1023.3" y="1007" class="st27" width="22.2" height="22.2"/>
					</g>
					<rect x="1208" y="1007" class="st27" width="22.2" height="22.2"/>
					<g>
						<rect x="838.6" y="822.3" class="st27" width="22.2" height="22.2"/>
						<rect x="1208" y="822.3" class="st27" width="22.2" height="22.2"/>
					</g>
				</g>
				<g>
					<path class="st12" d="M1661.6,1019.1h-5.5c-0.6,0-1-0.4-1-1s0.4-1,1-1h4.5v-4.5c0-0.6,0.4-1,1-1s1,0.4,1,1v5.5
						C1662.6,1018.7,1662.1,1019.1,1661.6,1019.1z"/>
					<path class="st12" d="M1645.2,1019.1h-10.9c-0.6,0-1-0.4-1-1s0.4-1,1-1h10.9c0.6,0,1,0.4,1,1S1645.8,1019.1,1645.2,1019.1z
						 M1623.5,1019.1h-10.9c-0.6,0-1-0.4-1-1s0.4-1,1-1h10.9c0.6,0,1,0.4,1,1S1624.1,1019.1,1623.5,1019.1z M1601.8,1019.1h-10.9
						c-0.6,0-1-0.4-1-1s0.4-1,1-1h10.9c0.6,0,1,0.4,1,1S1602.3,1019.1,1601.8,1019.1z M1580.1,1019.1h-10.9c-0.6,0-1-0.4-1-1
						s0.4-1,1-1h10.9c0.6,0,1,0.4,1,1S1580.6,1019.1,1580.1,1019.1z M1558.3,1019.1h-10.9c-0.6,0-1-0.4-1-1s0.4-1,1-1h10.9
						c0.6,0,1,0.4,1,1S1558.9,1019.1,1558.3,1019.1z M1536.6,1019.1h-10.9c-0.6,0-1-0.4-1-1s0.4-1,1-1h10.9c0.6,0,1,0.4,1,1
						S1537.2,1019.1,1536.6,1019.1z M1514.9,1019.1H1504c-0.6,0-1-0.4-1-1s0.4-1,1-1h10.9c0.6,0,1,0.4,1,1
						S1515.4,1019.1,1514.9,1019.1z M1493.2,1019.1h-10.9c-0.6,0-1-0.4-1-1s0.4-1,1-1h10.9c0.6,0,1,0.4,1,1
						S1493.7,1019.1,1493.2,1019.1z M1471.4,1019.1h-10.9c-0.6,0-1-0.4-1-1s0.4-1,1-1h10.9c0.6,0,1,0.4,1,1
						S1472,1019.1,1471.4,1019.1z M1449.7,1019.1h-10.9c-0.6,0-1-0.4-1-1s0.4-1,1-1h10.9c0.6,0,1,0.4,1,1
						S1450.3,1019.1,1449.7,1019.1z M1428,1019.1h-10.9c-0.6,0-1-0.4-1-1s0.4-1,1-1h10.9c0.6,0,1,0.4,1,1S1428.6,1019.1,1428,1019.1
						z M1406.3,1019.1h-10.9c-0.6,0-1-0.4-1-1s0.4-1,1-1h10.9c0.6,0,1,0.4,1,1S1406.8,1019.1,1406.3,1019.1z M1384.6,1019.1h-10.9
						c-0.6,0-1-0.4-1-1s0.4-1,1-1h10.9c0.6,0,1,0.4,1,1S1385.1,1019.1,1384.6,1019.1z M1362.8,1019.1H1352c-0.6,0-1-0.4-1-1
						s0.4-1,1-1h10.9c0.6,0,1,0.4,1,1S1363.4,1019.1,1362.8,1019.1z M1341.1,1019.1h-10.9c-0.6,0-1-0.4-1-1s0.4-1,1-1h10.9
						c0.6,0,1,0.4,1,1S1341.7,1019.1,1341.1,1019.1z M1319.4,1019.1h-10.9c-0.6,0-1-0.4-1-1s0.4-1,1-1h10.9c0.6,0,1,0.4,1,1
						S1319.9,1019.1,1319.4,1019.1z"/>
					<path class="st12" d="M1297.7,1019.1h-5.5c-0.6,0-1-0.4-1-1v-5.5c0-0.6,0.4-1,1-1s1,0.4,1,1v4.5h4.5c0.6,0,1,0.4,1,1
						S1298.2,1019.1,1297.7,1019.1z"/>
					<path class="st12" d="M1292.2,1002.8c-0.6,0-1-0.4-1-1v-10.9c0-0.6,0.4-1,1-1s1,0.4,1,1v10.9
						C1293.2,1002.3,1292.7,1002.8,1292.2,1002.8z M1292.2,981c-0.6,0-1-0.4-1-1v-10.9c0-0.6,0.4-1,1-1s1,0.4,1,1V980
						C1293.2,980.6,1292.7,981,1292.2,981z M1292.2,959.3c-0.6,0-1-0.4-1-1v-10.9c0-0.6,0.4-1,1-1s1,0.4,1,1v10.9
						C1293.2,958.9,1292.7,959.3,1292.2,959.3z M1292.2,937.6c-0.6,0-1-0.4-1-1v-10.9c0-0.6,0.4-1,1-1s1,0.4,1,1v10.9
						C1293.2,937.1,1292.7,937.6,1292.2,937.6z M1292.2,915.9c-0.6,0-1-0.4-1-1V904c0-0.6,0.4-1,1-1s1,0.4,1,1v10.9
						C1293.2,915.4,1292.7,915.9,1292.2,915.9z M1292.2,894.1c-0.6,0-1-0.4-1-1v-10.9c0-0.6,0.4-1,1-1s1,0.4,1,1v10.9
						C1293.2,893.7,1292.7,894.1,1292.2,894.1z M1292.2,872.4c-0.6,0-1-0.4-1-1v-10.9c0-0.6,0.4-1,1-1s1,0.4,1,1v10.9
						C1293.2,872,1292.7,872.4,1292.2,872.4z M1292.2,850.7c-0.6,0-1-0.4-1-1v-10.9c0-0.6,0.4-1,1-1s1,0.4,1,1v10.9
						C1293.2,850.3,1292.7,850.7,1292.2,850.7z M1292.2,829c-0.6,0-1-0.4-1-1v-10.9c0-0.6,0.4-1,1-1s1,0.4,1,1V828
						C1293.2,828.5,1292.7,829,1292.2,829z M1292.2,807.3c-0.6,0-1-0.4-1-1v-10.9c0-0.6,0.4-1,1-1s1,0.4,1,1v10.9
						C1293.2,806.8,1292.7,807.3,1292.2,807.3z M1292.2,785.5c-0.6,0-1-0.4-1-1v-10.9c0-0.6,0.4-1,1-1s1,0.4,1,1v10.9
						C1293.2,785.1,1292.7,785.5,1292.2,785.5z M1292.2,763.8c-0.6,0-1-0.4-1-1v-10.9c0-0.6,0.4-1,1-1s1,0.4,1,1v10.9
						C1293.2,763.4,1292.7,763.8,1292.2,763.8z M1292.2,742.1c-0.6,0-1-0.4-1-1v-10.9c0-0.6,0.4-1,1-1s1,0.4,1,1v10.9
						C1293.2,741.6,1292.7,742.1,1292.2,742.1z M1292.2,720.4c-0.6,0-1-0.4-1-1v-10.9c0-0.6,0.4-1,1-1s1,0.4,1,1v10.9
						C1293.2,719.9,1292.7,720.4,1292.2,720.4z M1292.2,698.6c-0.6,0-1-0.4-1-1v-10.9c0-0.6,0.4-1,1-1s1,0.4,1,1v10.9
						C1293.2,698.2,1292.7,698.6,1292.2,698.6z M1292.2,676.9c-0.6,0-1-0.4-1-1v-10.9c0-0.6,0.4-1,1-1s1,0.4,1,1v10.9
						C1293.2,676.5,1292.7,676.9,1292.2,676.9z"/>
					<path class="st12" d="M1292.2,655.2c-0.6,0-1-0.4-1-1v-5.5c0-0.6,0.4-1,1-1h5.5c0.6,0,1,0.4,1,1s-0.4,1-1,1h-4.5v4.5
						C1293.2,654.7,1292.7,655.2,1292.2,655.2z"/>
					<path class="st12" d="M1645.2,649.7h-10.9c-0.6,0-1-0.4-1-1s0.4-1,1-1h10.9c0.6,0,1,0.4,1,1S1645.8,649.7,1645.2,649.7z
						 M1623.5,649.7h-10.9c-0.6,0-1-0.4-1-1s0.4-1,1-1h10.9c0.6,0,1,0.4,1,1S1624.1,649.7,1623.5,649.7z M1601.8,649.7h-10.9
						c-0.6,0-1-0.4-1-1s0.4-1,1-1h10.9c0.6,0,1,0.4,1,1S1602.3,649.7,1601.8,649.7z M1580.1,649.7h-10.9c-0.6,0-1-0.4-1-1s0.4-1,1-1
						h10.9c0.6,0,1,0.4,1,1S1580.6,649.7,1580.1,649.7z M1558.3,649.7h-10.9c-0.6,0-1-0.4-1-1s0.4-1,1-1h10.9c0.6,0,1,0.4,1,1
						S1558.9,649.7,1558.3,649.7z M1536.6,649.7h-10.9c-0.6,0-1-0.4-1-1s0.4-1,1-1h10.9c0.6,0,1,0.4,1,1S1537.2,649.7,1536.6,649.7z
						 M1514.9,649.7H1504c-0.6,0-1-0.4-1-1s0.4-1,1-1h10.9c0.6,0,1,0.4,1,1S1515.4,649.7,1514.9,649.7z M1493.2,649.7h-10.9
						c-0.6,0-1-0.4-1-1s0.4-1,1-1h10.9c0.6,0,1,0.4,1,1S1493.7,649.7,1493.2,649.7z M1471.4,649.7h-10.9c-0.6,0-1-0.4-1-1s0.4-1,1-1
						h10.9c0.6,0,1,0.4,1,1S1472,649.7,1471.4,649.7z M1449.7,649.7h-10.9c-0.6,0-1-0.4-1-1s0.4-1,1-1h10.9c0.6,0,1,0.4,1,1
						S1450.3,649.7,1449.7,649.7z M1428,649.7h-10.9c-0.6,0-1-0.4-1-1s0.4-1,1-1h10.9c0.6,0,1,0.4,1,1S1428.6,649.7,1428,649.7z
						 M1406.3,649.7h-10.9c-0.6,0-1-0.4-1-1s0.4-1,1-1h10.9c0.6,0,1,0.4,1,1S1406.8,649.7,1406.3,649.7z M1384.6,649.7h-10.9
						c-0.6,0-1-0.4-1-1s0.4-1,1-1h10.9c0.6,0,1,0.4,1,1S1385.1,649.7,1384.6,649.7z M1362.8,649.7H1352c-0.6,0-1-0.4-1-1s0.4-1,1-1
						h10.9c0.6,0,1,0.4,1,1S1363.4,649.7,1362.8,649.7z M1341.1,649.7h-10.9c-0.6,0-1-0.4-1-1s0.4-1,1-1h10.9c0.6,0,1,0.4,1,1
						S1341.7,649.7,1341.1,649.7z M1319.4,649.7h-10.9c-0.6,0-1-0.4-1-1s0.4-1,1-1h10.9c0.6,0,1,0.4,1,1S1319.9,649.7,1319.4,649.7z
						"/>
					<path class="st12" d="M1661.6,655.2c-0.6,0-1-0.4-1-1v-4.5h-4.5c-0.6,0-1-0.4-1-1s0.4-1,1-1h5.5c0.6,0,1,0.4,1,1v5.5
						C1662.6,654.7,1662.1,655.2,1661.6,655.2z"/>
					<path class="st12" d="M1661.6,1002.8c-0.6,0-1-0.4-1-1v-10.9c0-0.6,0.4-1,1-1s1,0.4,1,1v10.9
						C1662.6,1002.3,1662.1,1002.8,1661.6,1002.8z M1661.6,981c-0.6,0-1-0.4-1-1v-10.9c0-0.6,0.4-1,1-1s1,0.4,1,1V980
						C1662.6,980.6,1662.1,981,1661.6,981z M1661.6,959.3c-0.6,0-1-0.4-1-1v-10.9c0-0.6,0.4-1,1-1s1,0.4,1,1v10.9
						C1662.6,958.9,1662.1,959.3,1661.6,959.3z M1661.6,937.6c-0.6,0-1-0.4-1-1v-10.9c0-0.6,0.4-1,1-1s1,0.4,1,1v10.9
						C1662.6,937.1,1662.1,937.6,1661.6,937.6z M1661.6,915.9c-0.6,0-1-0.4-1-1V904c0-0.6,0.4-1,1-1s1,0.4,1,1v10.9
						C1662.6,915.4,1662.1,915.9,1661.6,915.9z M1661.6,894.1c-0.6,0-1-0.4-1-1v-10.9c0-0.6,0.4-1,1-1s1,0.4,1,1v10.9
						C1662.6,893.7,1662.1,894.1,1661.6,894.1z M1661.6,872.4c-0.6,0-1-0.4-1-1v-10.9c0-0.6,0.4-1,1-1s1,0.4,1,1v10.9
						C1662.6,872,1662.1,872.4,1661.6,872.4z M1661.6,850.7c-0.6,0-1-0.4-1-1v-10.9c0-0.6,0.4-1,1-1s1,0.4,1,1v10.9
						C1662.6,850.3,1662.1,850.7,1661.6,850.7z M1661.6,829c-0.6,0-1-0.4-1-1v-10.9c0-0.6,0.4-1,1-1s1,0.4,1,1V828
						C1662.6,828.5,1662.1,829,1661.6,829z M1661.6,807.3c-0.6,0-1-0.4-1-1v-10.9c0-0.6,0.4-1,1-1s1,0.4,1,1v10.9
						C1662.6,806.8,1662.1,807.3,1661.6,807.3z M1661.6,785.5c-0.6,0-1-0.4-1-1v-10.9c0-0.6,0.4-1,1-1s1,0.4,1,1v10.9
						C1662.6,785.1,1662.1,785.5,1661.6,785.5z M1661.6,763.8c-0.6,0-1-0.4-1-1v-10.9c0-0.6,0.4-1,1-1s1,0.4,1,1v10.9
						C1662.6,763.4,1662.1,763.8,1661.6,763.8z M1661.6,742.1c-0.6,0-1-0.4-1-1v-10.9c0-0.6,0.4-1,1-1s1,0.4,1,1v10.9
						C1662.6,741.6,1662.1,742.1,1661.6,742.1z M1661.6,720.4c-0.6,0-1-0.4-1-1v-10.9c0-0.6,0.4-1,1-1s1,0.4,1,1v10.9
						C1662.6,719.9,1662.1,720.4,1661.6,720.4z M1661.6,698.6c-0.6,0-1-0.4-1-1v-10.9c0-0.6,0.4-1,1-1s1,0.4,1,1v10.9
						C1662.6,698.2,1662.1,698.6,1661.6,698.6z M1661.6,676.9c-0.6,0-1-0.4-1-1v-10.9c0-0.6,0.4-1,1-1s1,0.4,1,1v10.9
						C1662.6,676.5,1662.1,676.9,1661.6,676.9z"/>
				</g>
				<rect x="1281.1" y="637.6" class="st28" width="22.2" height="22.2"/>
				<rect x="1650.5" y="637.6" class="st28" width="22.2" height="22.2"/>
				<rect x="1281.1" y="1007" class="st28" width="22.2" height="22.2"/>
				<g>
					<rect x="1465.8" y="637.6" class="st28" width="22.2" height="22.2"/>
					<rect x="1465.8" y="1007" class="st28" width="22.2" height="22.2"/>
				</g>
				<rect x="1650.5" y="1007" class="st28" width="22.2" height="22.2"/>
				<g>
					<rect x="1281.1" y="822.3" class="st28" width="22.2" height="22.2"/>
					<rect x="1650.5" y="822.3" class="st28" width="22.2" height="22.2"/>
				</g>
				<path class="st2" d="M1193.8,875c-10.9-6.4-22.1-12.3-33.5-17.8c-13.7-6.5-28.7-12.7-44.2-10.7c-14.9,1.9-25.6,11.9-37.9,19.5
					c-34.3,21.2-68.6-6.6-93.3-29.3c-33-30.2-69.8-55-109.8-73.2v229.2h318.7V875z"/>
				<circle class="st13" cx="1052.7" cy="808.2" r="29.4"/>
				<circle class="st2" cx="1372.6" cy="745.5" r="29.4"/>
				<path class="st29" d="M1636.2,730.9c-14.6,3.1-28.4,9.5-40.1,18.7c-31.3,24.5-41.3,64.3-57.2,98.8c-8.7,19-19.9,38.2-36.9,51.1
					c-20.9,15.9-46.7,16.2-70.9,8.5c-39.1-12.4-72.8-41.9-113.6-47.8v132.7h318.7V730.9z"/>
			</g>
			<path class="st10" d="M1550.5,527H922.3c-17.2,0-31.2,14-31.2,31.2v0c0,17.2,14,31.2,31.2,31.2h628.2c17.2,0,31.2-14,31.2-31.2v0
				C1581.7,541,1567.8,527,1550.5,527z"/>
			<path class="st10" d="M1550.5,527H922.3c-17.2,0-31.2,14-31.2,31.2v0c0,17.2,14,31.2,31.2,31.2h628.2c17.2,0,31.2-14,31.2-31.2v0
				C1581.7,541,1567.8,527,1550.5,527z"/>
			<g>
				<circle class="st10" cx="1531.2" cy="421.4" r="43.2"/>
				<circle class="st10" cx="1651.3" cy="421.4" r="43.2"/>
				<circle class="st10" cx="1411" cy="421.4" r="43.2"/>
				<linearGradient id="SVGID_15_" gradientUnits="userSpaceOnUse" x1="1376.5884" y1="421.4311" x2="1445.4053" y2="421.4311">
					<stop  offset="0" style="stop-color:#F44599"/>
					<stop  offset="0.3285" style="stop-color:#B50B78"/>
					<stop  offset="0.6381" style="stop-color:#751880"/>
					<stop  offset="1" style="stop-color:#945EF2"/>
				</linearGradient>
				<circle class="st30" cx="1411" cy="421.4" r="34.4"/>
				<linearGradient id="SVGID_16_" gradientUnits="userSpaceOnUse" x1="1496.745" y1="421.4311" x2="1565.5618" y2="421.4311">
					<stop  offset="0" style="stop-color:#081A42"/>
					<stop  offset="0.5314" style="stop-color:#751880"/>
					<stop  offset="1" style="stop-color:#945EF2"/>
				</linearGradient>
				<circle class="st31" cx="1531.2" cy="421.4" r="34.4"/>
				<linearGradient id="SVGID_17_" gradientUnits="userSpaceOnUse" x1="1616.901" y1="421.4311" x2="1685.7179" y2="421.4311">
					<stop  offset="0" style="stop-color:#FEC9F5"/>
					<stop  offset="0.4414" style="stop-color:#ED74B3"/>
					<stop  offset="1" style="stop-color:#B50B78"/>
				</linearGradient>
				<circle class="st32" cx="1651.3" cy="421.4" r="34.4"/>
			</g>
			<linearGradient id="SVGID_18_" gradientUnits="userSpaceOnUse" x1="1158.3324" y1="416.2127" x2="1314.4482" y2="700.2377">
				<stop  offset="0" style="stop-color:#F44599"/>
				<stop  offset="0.3285" style="stop-color:#B50B78"/>
				<stop  offset="0.6381" style="stop-color:#751880"/>
				<stop  offset="1" style="stop-color:#945EF2"/>
			</linearGradient>
			<path class="st33" d="M1545.9,545.3H926.8c-7.1,0-12.9,5.8-12.9,12.9c0,7.1,5.8,12.9,12.9,12.9h619.1c7.1,0,12.9-5.8,12.9-12.9
				C1558.9,551.1,1553.1,545.3,1545.9,545.3z"/>
			<circle class="st9" cx="343" cy="251.3" r="11.6"/>
			<circle class="st9" cx="389" cy="251.3" r="11.6"/>
			<circle class="st9" cx="435.1" cy="251.3" r="11.6"/>
		</g>
	</g>
</g>
</svg>
